<?xml version="1.0" encoding="utf-8"?>
<!-- Generator: Adobe Illustrator 23.0.0, SVG Export Plug-In . SVG Version: 6.00 Build 0)  -->
<svg version="1.1" id="Layer_1" xmlns="http://www.w3.org/2000/svg" xmlns:xlink="http://www.w3.org/1999/xlink" x="0px" y="0px"
	 viewBox="0 0 369.72 142.48" style="enable-background:new 0 0 369.72 142.48;" xml:space="preserve">
<style type="text/css">
	.st0{fill:none;}
	.st1{fill:#231F20;}
	.st2{fill:#1B75BC;}
	.st3{fill:#EF4136;}
	.st4{fill:#FFFFFF;}
</style>
<g>
	<rect class="st0" width="369.72" height="142.48"/>
	<g>
		<g>
			<path class="st1" d="M28.47,56.72V30.47h2.45v26.25H28.47z"/>
			<path class="st1" d="M41.1,37.47c0,3.75,2.17,4.1,6.3,4.62c5.15,0.67,8.33,1.92,8.33,7.07c0,3.57-1.89,7.91-9.7,7.91
				c-2.42,0-5.71-0.67-7.35-1.4V53.4c1.68,0.56,3.75,1.47,7.39,1.47c5.46,0,7.11-2.56,7.11-5.71c0-3.75-1.54-4.48-5.92-5.04
				c-6.2-0.77-8.58-2.21-8.58-6.69c0-3.05,1.47-7.32,8.82-7.32c3.22,0,5.39,0.56,6.83,1.23v2.35c-2.38-1.02-4.27-1.37-6.86-1.37
				C42.29,32.32,41.1,34.7,41.1,37.47z"/>
			<path class="st1" d="M60.35,56.72l9.28-26.6h1.75l9.28,26.6h-2.7l-2.42-7.35H65.46l-2.42,7.35H60.35z M66.13,47.3h8.72
				l-4.34-13.2L66.13,47.3z"/>
			<path class="st1" d="M89.09,56.72h-2.38V30.47h8.02c6.55,0,8.79,3.78,8.79,7.88c0,4.1-2.24,7.88-8.79,7.88h-5.64V56.72z
				 M89.09,44.01h5.95c4.94,0,5.88-3.15,5.88-5.67c0-2.52-0.95-5.67-5.88-5.67h-5.95V44.01z"/>
			<path class="st1" d="M112.29,56.72h-2.38V30.47h8.23c6.55,0,8.58,2.87,8.58,7.39c0,3.5-1.23,6.02-4.83,6.97l6.27,11.9h-2.77
				l-5.88-11.52c-0.39,0.03-0.77,0.03-1.16,0.03h-6.06V56.72z M112.29,43.03h6.48c4.66,0,5.36-2.38,5.36-5.18s-0.7-5.18-5.36-5.18
				h-6.48V43.03z"/>
			<path class="st1" d="M148.2,44.15h-11.62v10.36h12.85v2.21H134.2V30.47h15.23v2.21h-12.85v9.28h11.62V44.15z"/>
			<path class="st1" d="M158.39,37.47c0,3.75,2.17,4.1,6.3,4.62c5.15,0.67,8.33,1.92,8.33,7.07c0,3.57-1.89,7.91-9.7,7.91
				c-2.42,0-5.71-0.67-7.35-1.4V53.4c1.68,0.56,3.75,1.47,7.39,1.47c5.46,0,7.11-2.56,7.11-5.71c0-3.75-1.54-4.48-5.92-5.04
				c-6.2-0.77-8.58-2.21-8.58-6.69c0-3.05,1.47-7.32,8.82-7.32c3.22,0,5.39,0.56,6.83,1.23v2.35c-2.38-1.02-4.27-1.37-6.86-1.37
				C159.58,32.32,158.39,34.7,158.39,37.47z"/>
			<path class="st1" d="M198.39,30.12c3.22,0,5.39,0.59,6.83,1.23v2.35c-2.42-0.98-4.2-1.37-6.83-1.37c-5.74,0-7.81,4.94-7.81,11.27
				c0,6.34,2.06,11.27,7.81,11.27c2.63,0,4.41-0.39,6.83-1.37v2.35c-1.44,0.63-3.61,1.23-6.83,1.23c-7.84,0-10.33-6.02-10.33-13.48
				C188.07,36.14,190.55,30.12,198.39,30.12z"/>
			<path class="st1" d="M227.97,56.72V44.15h-13.09v12.57h-2.38V30.47h2.38v11.48h13.09V30.47h2.38v26.25H227.97z"/>
			<path class="st1" d="M238.85,56.72V30.47h2.45v26.25H238.85z"/>
			<path class="st1" d="M252.19,54.52h12.15v2.21h-14.53V30.47h2.38V54.52z"/>
			<path class="st1" d="M284.91,44.15h-11.62v10.36h12.85v2.21h-15.23V30.47h15.23v2.21h-12.85v9.28h11.62V44.15z"/>
			<path class="st2" d="M26.46,115.72l13.73-49.76h12.14l13.73,49.76H54.84l-2.31-10.16H39.99l-2.31,10.16H26.46z M42.04,97.18h8.45
				l-4.22-18.74L42.04,97.18z"/>
			<path class="st2" d="M103.29,99.95c0,12.28-7.72,16.7-19.4,16.7c-5.35,0-11.88-0.92-15.44-3.04v-10.82
				c2.31,1.32,7.85,3.83,14.39,3.83c7.46,0,9.64-2.31,9.64-5.68c0-3.76-1.65-5.02-6.67-5.68c-12.54-1.65-17.36-5.35-17.36-15.05
				c0-8.97,5.48-14.91,18.54-14.91c6.73,0,11.68,1.19,13.99,2.44v10.23c-2.71-1.32-8.18-2.64-13.2-2.64c-5.48,0-8.51,1.71-8.51,4.88
				c0,3.56,1.91,4.69,7.06,5.41C97.28,87.14,103.29,89.39,103.29,99.95z"/>
			<path class="st2" d="M138,94.87h-19.07v11.22h20.99v9.64h-31.55v-49.5h31.55v9.63h-20.99v9.57H138V94.87z"/>
			<path class="st2" d="M179.51,99.95c0,12.28-7.72,16.7-19.4,16.7c-5.35,0-11.88-0.92-15.44-3.04v-10.82
				c2.31,1.32,7.85,3.83,14.39,3.83c7.46,0,9.63-2.31,9.63-5.68c0-3.76-1.65-5.02-6.67-5.68c-12.54-1.65-17.36-5.35-17.36-15.05
				c0-8.97,5.48-14.91,18.54-14.91c6.73,0,11.68,1.19,13.99,2.44v10.23c-2.71-1.32-8.18-2.64-13.2-2.64c-5.48,0-8.51,1.71-8.51,4.88
				c0,3.56,1.91,4.69,7.06,5.41C173.51,87.14,179.51,89.39,179.51,99.95z"/>
			<path class="st2" d="M184.27,90.97c0-15.11,4.16-25.67,19.73-25.67c15.58,0,19.73,10.56,19.73,25.67
				c0,15.11-4.16,25.67-19.73,25.67C188.43,116.64,184.27,106.09,184.27,90.97z M194.96,90.97c0,11.55,2.51,16.1,9.04,16.1
				c6.53,0,9.04-4.55,9.04-16.1s-2.51-16.1-9.04-16.1C197.47,74.87,194.96,79.42,194.96,90.97z"/>
			<path class="st2" d="M240.04,115.72h-10.56v-49.5h16.83c13.33,0,17.69,6.07,17.69,15.51c0,6.14-1.72,10.82-6.93,13.33l8.78,20.66
				H253.5l-6.67-18.54h-6.8V115.72z M240.04,87.61h7.19c4.69,0,5.28-3.17,5.28-5.87c0-2.77-0.59-5.87-5.28-5.87h-7.19V87.61z"/>
			<path class="st2" d="M299.04,94.87h-19.07v11.22h20.99v9.64h-31.54v-49.5h31.54v9.63h-20.99v9.57h19.07V94.87z"/>
			<path class="st2" d="M340.55,99.95c0,12.28-7.72,16.7-19.4,16.7c-5.34,0-11.88-0.92-15.44-3.04v-10.82
				c2.31,1.32,7.85,3.83,14.39,3.83c7.46,0,9.63-2.31,9.63-5.68c0-3.76-1.65-5.02-6.67-5.68c-12.54-1.65-17.36-5.35-17.36-15.05
				c0-8.97,5.48-14.91,18.54-14.91c6.73,0,11.68,1.19,13.99,2.44v10.23c-2.71-1.32-8.18-2.64-13.2-2.64c-5.48,0-8.51,1.71-8.51,4.88
				c0,3.56,1.91,4.69,7.06,5.41C334.55,87.14,340.55,89.39,340.55,99.95z"/>
		</g>
		<g>
			<g>
				<path class="st2" d="M311.94,55.55c-3.74-3.74-3.74-9.87,0-13.61l8.51-8.51l-5.96-5.96c-3.74-3.74-9.87-3.74-13.61,0l-1.76,1.76
					c-3.74,3.74-3.74,9.87,0,13.61l14.46,14.46c1.89,1.89,4.38,2.82,6.86,2.8c-2.45-0.01-4.89-0.95-6.75-2.8L311.94,55.55z"/>
				<path class="st3" d="M341.77,29.24l-1.76-1.76c-3.74-3.74-9.87-3.74-13.61,0l-5.96,5.96l8.51,8.51c3.74,3.74,3.74,9.87,0,13.61
					l-1.76,1.76c-1.86,1.86-4.3,2.79-6.75,2.8c2.49,0.01,4.98-0.92,6.86-2.8l14.46-14.46C345.52,39.11,345.52,32.98,341.77,29.24z"
					/>
			</g>
			<g>
				<path class="st4" d="M328.95,42.14l-8.51-8.31l-8.51,8.31c-3.74,3.66-3.74,9.64,0,13.3l1.76,1.72c1.86,1.82,4.3,2.73,6.75,2.74
					c2.45-0.01,4.89-0.93,6.75-2.74l1.76-1.72C332.7,51.78,332.7,45.8,328.95,42.14z"/>
				<path class="st4" d="M320.45,60.19c-2.64-0.01-5.11-1.02-6.95-2.82l-1.76-1.72c-1.87-1.83-2.89-4.26-2.89-6.86
					c0-2.6,1.03-5.04,2.89-6.86l8.71-8.51l8.71,8.51c1.87,1.82,2.89,4.26,2.89,6.86c0,2.6-1.03,5.04-2.89,6.86l-1.76,1.72
					C325.55,59.18,323.08,60.18,320.45,60.19z M320.45,34.23l-8.3,8.11c-1.75,1.71-2.72,4-2.72,6.44c0,2.44,0.97,4.73,2.72,6.44
					l1.76,1.72c1.74,1.7,4.06,2.64,6.54,2.66c2.48-0.01,4.8-0.96,6.54-2.66l1.76-1.72c1.75-1.71,2.72-4,2.72-6.44
					c0-2.44-0.97-4.73-2.72-6.44L320.45,34.23z"/>
			</g>
		</g>
	</g>
</g>
</svg>
